<svg width="20" height="20" fill="none" xmlns="http://www.w3.org/2000/svg"><path fill-rule="evenodd" clip-rule="evenodd" d="M10 2.915c1.09-1.28 2.76-2.09 4.5-2.09 3.08 0 5.5 2.42 5.5 5.5 0 3.777-3.394 6.855-8.537 11.518l-.013.012-1.45 1.32-1.45-1.31-.04-.036C3.384 13.17 0 10.095 0 6.325c0-3.08 2.42-5.5 5.5-5.5 1.74 0 3.41.81 4.5 2.09zm0 13.56l.1-.1c4.76-4.31 7.9-7.16 7.9-10.05 0-2-1.5-3.5-3.5-3.5-1.54 0-3.04.99-3.56 2.36H9.07c-.53-1.37-2.03-2.36-3.57-2.36-2 0-3.5 1.5-3.5 3.5 0 2.89 3.14 5.74 7.9 10.05l.1.1z" fill="gray"/></svg>