<svg id="Layer_1" data-name="Layer 1" xmlns="http://www.w3.org/2000/svg" viewBox="0 0 841.43 99.49"><defs><style>.cls-1,.cls-2{fill:none;}.cls-1,.cls-4{stroke:#ff387a;}.cls-1,.cls-2,.cls-4,.cls-5{stroke-linecap:round;stroke-linejoin:round;stroke-width:2.97px;}.cls-2,.cls-5{stroke:#00b3a4;}.cls-3{fill:#fff;}.cls-4{fill:#00b3a4;}.cls-5{fill:#ff387a;}</style></defs><path class="cls-1" d="M252,58.4l-1.88,7c-1.48,6.45-3,12.37-4.57,19.35-2,9.41-2.69,10.49-6.72,10.49-8.33,0-15.85-3-15.85-6.32,0-.81,0-.81,1.21-5.64,2.55-10.76,5.51-21.77,9.27-35.21,2.82-9.81,3.36-12.23,4.3-16.13L233,33.67c-2.28.81-3.09,1.08-3.9,1.08-1.74,0-2.68-1.21-2.68-3.5,0-6.45,3.36-16.39,6.58-19.62,3.5-3.49,14.38-6.18,25.4-6.18,9,0,16.53,2.15,21.77,6.05,6.31,4.83,10.34,13.3,10.34,21.77,0,11.15-7.12,23.78-17.47,30.9-5.24,3.77-12,6.18-16.66,6.18-1.48,0-2.15-.4-2.55-1.34a34.81,34.81,0,0,1-1.21-9.67l.13-3.9Zm-3.9-29c1.48.54,3.1,1.08,4.57,1.48,3.5,1.07,5.65,2.95,5.65,5.1,0,1.08-1.08,5.11-3.36,12.23,7.52-1.74,12.9-7.12,12.9-12.9,0-5.1-3.76-7.79-10.89-7.79a59.26,59.26,0,0,0-10.88,1.21A6.85,6.85,0,0,0,248.13,29.37Z"/><path class="cls-1" d="M601.66,27.09c-5.11.53-7.12,2-7.12,5,0,1.88,1.07,4.43,3.76,8.6,7,10.75,9.67,18.27,9.67,26.6,0,9.41-4.56,18.15-11.69,22.85-5.24,3.49-12.36,5.24-21.09,5.24s-14.92-1.07-16.94-3.09a6.6,6.6,0,0,1-2.15-5.11c0-4.43,2.69-16.8,4.3-20C561.48,65,563.63,64,567.53,64s8.46.54,9.54,1.07c.54.41.8,1.08.8,2.56a39,39,0,0,1-.53,5.24,12.73,12.73,0,0,0,2,.13c3.76,0,6.18-1.88,6.18-5,0-3.49-2.15-8.47-7.39-16.8-5.91-9.54-7.39-13.17-7.39-18.27,0-15.32,16.8-27.68,37.63-27.68,5.91,0,11.29,1.07,13.3,2.68,1.21.94,1.75,2.29,1.75,4.44a53.4,53.4,0,0,1-2.82,14.91c-1.35,3.5-4,4.57-11.43,4.57-7,0-7.66-.27-7.66-3Z"/><path class="cls-2" d="M394.33,39.05l2.15-8.34,2.82-10.88,2-7.53c1.74-5.77,2.28-6.58,4.83-6.58a47,47,0,0,1,13.17,3c2.15,1.07,3.36,2.68,3.36,4.56,0,3.23-13.17,54-19.22,74.18-1.88,6.32-2.68,6.86-8.32,6.86-9.14,0-14-1.89-14-5.65,0-1.61,2.55-11.29,7.93-29.7.94-3.09,1.07-3.76,2-7.12l-.94,1.61c-.54,1.08-1.07,2.15-1.61,3.09-4,6.59-4.84,7.13-9.41,7h-6.45c-.67,3.09-.94,4.44-2.68,11.42-.95,3.36-1.62,6.19-2,8.2-1.48,6.45-2,7.8-3.09,9.14s-2.82,2.15-5.11,2.15a32.72,32.72,0,0,1-11-2.15c-3-1.21-3.9-2.15-3.9-3.76s.54-3.77,3.36-15c.8-2.69,1.48-5.51,2.15-8.34l.53-1.61c-3.62-.67-4.83-2-4.83-4.84,0-4,3.22-14.51,5.24-16.66,1.07-1.21,2-1.48,5.78-1.48l.27-1.21c.4-1.21.8-2.55,1.2-3.89,2.42-8.74,7-23.25,7.93-25.54a6.37,6.37,0,0,1,6.32-4.16,32.2,32.2,0,0,1,10.61,2.55c2.42,1.08,3.63,2.82,3.63,5.11,0,1.48,0,1.48-2.15,8.2l-2.15,7-2.95,10-.68,2,14.65.41Z"/><path class="cls-2" d="M197.48,14.18c9.27-8.06,10.21-8.73,12.23-8.73,5.37,0,9.67,12.09,9.67,26.88,0,16.79-6.31,37.49-14.64,48.24C196.81,90.65,187,96.29,177.32,96.29a24.39,24.39,0,0,1-16.93-7.39c-6.18-6.18-9.27-14.78-9.27-25.53,0-19.89,9-40.32,22.44-50.93,6.32-5,13.44-7.93,19.08-7.93,3,0,4.17.94,4.17,3.22,0,2-.27,3.77-1.21,8.07Zm-3.63,9.14c-.67,2.29-.8,2.69-1.34,3.36a16,16,0,0,1-2.69,1.88c-4.84,3.09-8.33,7.53-11.29,14.25S174,56.51,174,62.16s2.69,10.08,6,10.08c7.79,0,15.86-19.89,15.86-39a41.55,41.55,0,0,0-1.48-11.83A11,11,0,0,0,193.85,23.32Z"/><polygon class="cls-3" points="71.53 77.4 50.27 77.4 50.27 43.99 38.12 43.99 38.12 77.4 16.86 77.4 16.86 10.58 4.71 10.58 4.71 89.55 38.12 89.55 50.27 89.55 83.68 89.55 83.68 10.58 71.53 10.58 71.53 77.4"/><polygon class="cls-3" points="189.97 89.55 202.12 89.55 202.12 22.73 256.78 22.73 256.78 89.55 268.93 89.55 268.93 10.58 189.97 10.58 189.97 89.55"/><path class="cls-3" d="M136.82,10.58A39.48,39.48,0,1,0,176.3,50.06,39.52,39.52,0,0,0,136.82,10.58Zm0,66.82a27.34,27.34,0,1,1,27.34-27.34A27.37,27.37,0,0,1,136.82,77.4Z"/><polygon class="cls-3" points="350.93 77.4 329.67 77.4 329.67 43.99 317.52 43.99 317.52 77.4 296.26 77.4 296.26 10.58 284.12 10.58 284.12 89.55 317.52 89.55 329.67 89.55 363.08 89.55 363.08 10.58 350.93 10.58 350.93 77.4"/><polygon class="cls-3" points="469.37 89.55 481.52 89.55 481.52 22.73 536.19 22.73 536.19 89.55 548.33 89.55 548.33 10.58 469.37 10.58 469.37 89.55"/><path class="cls-3" d="M416.23,10.58a39.48,39.48,0,1,0,39.48,39.48A39.53,39.53,0,0,0,416.23,10.58Zm0,66.82a27.34,27.34,0,1,1,27.33-27.34A27.37,27.37,0,0,1,416.23,77.4Z"/><polygon class="cls-3" points="630.33 77.4 609.07 77.4 609.07 43.99 596.93 43.99 596.93 77.4 575.67 77.4 575.67 10.58 563.52 10.58 563.52 89.55 596.93 89.55 609.07 89.55 642.48 89.55 642.48 10.58 630.33 10.58 630.33 77.4"/><polygon class="cls-3" points="748.77 10.58 748.77 89.55 760.92 89.55 760.92 22.73 815.59 22.73 815.59 89.55 827.74 89.55 827.74 10.58 748.77 10.58"/><path class="cls-3" d="M695.63,10.58a39.48,39.48,0,1,0,39.48,39.48A39.52,39.52,0,0,0,695.63,10.58Zm0,66.82A27.34,27.34,0,1,1,723,50.06,27.37,27.37,0,0,1,695.63,77.4Z"/><path class="cls-1" d="M56.39,27.09c-5.1.53-7.12,2-7.12,5,0,1.88,1.07,4.43,3.76,8.6,7,10.75,9.68,18.27,9.68,26.6,0,9.41-4.57,18.15-11.69,22.85-5.24,3.49-12.37,5.24-21.1,5.24S15,94.28,13,92.26a6.6,6.6,0,0,1-2.15-5.11c0-4.43,2.69-16.8,4.3-20C16.21,65,18.36,64,22.26,64s8.47.54,9.54,1.07c.54.41.81,1.08.81,2.56a39.66,39.66,0,0,1-.54,5.24,12.8,12.8,0,0,0,2,.13c3.77,0,6.19-1.88,6.19-5,0-3.49-2.15-8.47-7.39-16.8C27,41.73,25.48,38.1,25.48,33c0-15.32,16.8-27.68,37.63-27.68C69,5.32,74.4,6.39,76.42,8c1.21.94,1.74,2.29,1.74,4.44a53,53,0,0,1-2.82,14.91c-1.34,3.5-4,4.57-11.42,4.57-7,0-7.66-.27-7.66-3Z"/><path class="cls-4" d="M121.7,39.05l2.15-8.34,2.82-10.88,2-7.53c1.75-5.77,2.29-6.58,4.84-6.58a47,47,0,0,1,13.17,3c2.15,1.07,3.36,2.68,3.36,4.56,0,3.23-13.17,54-19.22,74.18-1.88,6.32-2.68,6.86-8.33,6.86-9.13,0-14-1.89-14-5.65,0-1.61,2.55-11.29,7.93-29.7.94-3.09,1.07-3.76,2-7.12l-.94,1.61c-.54,1.08-1.07,2.15-1.61,3.09-4,6.59-4.84,7.13-9.41,7h-6.45c-.67,3.09-.94,4.44-2.69,11.42-.94,3.36-1.61,6.19-2,8.2-1.48,6.45-2,7.8-3.09,9.14s-2.82,2.15-5.11,2.15a32.83,32.83,0,0,1-11-2.15c-3-1.21-3.89-2.15-3.89-3.76s.53-3.77,3.36-15c.8-2.69,1.47-5.51,2.15-8.34l.53-1.61c-3.62-.67-4.83-2-4.83-4.84,0-4,3.22-14.51,5.24-16.66,1.07-1.21,2-1.48,5.77-1.48l.27-1.21c.41-1.21.81-2.55,1.21-3.89,2.42-8.74,7-23.25,7.93-25.54a6.37,6.37,0,0,1,6.32-4.16,32.2,32.2,0,0,1,10.61,2.55c2.42,1.08,3.63,2.82,3.63,5.11,0,1.48,0,1.48-2.15,8.2l-2.15,7-3,10-.67,2,14.65.41Z"/><path class="cls-5" d="M329,27.09c-5.11.53-7.13,2-7.13,5,0,1.88,1.08,4.43,3.77,8.6,7,10.75,9.67,18.27,9.67,26.6,0,9.41-4.57,18.15-11.69,22.85-5.24,3.49-12.36,5.24-21.1,5.24s-14.91-1.07-16.93-3.09a6.6,6.6,0,0,1-2.15-5.11c0-4.43,2.69-16.8,4.3-20C288.85,65,291,64,294.89,64s8.47.54,9.54,1.07c.54.41.81,1.08.81,2.56a37.93,37.93,0,0,1-.54,5.24,12.85,12.85,0,0,0,2,.13c3.76,0,6.18-1.88,6.18-5,0-3.49-2.15-8.47-7.39-16.8-5.92-9.54-7.39-13.17-7.39-18.27,0-15.32,16.8-27.68,37.62-27.68,5.92,0,11.29,1.07,13.31,2.68,1.21.94,1.75,2.29,1.75,4.44A53.06,53.06,0,0,1,348,27.35c-1.34,3.5-4,4.57-11.42,4.57-7,0-7.66-.27-7.66-3Z"/><path class="cls-1" d="M470.11,14.18c9.27-8.06,10.22-8.73,12.23-8.73,5.37,0,9.67,12.09,9.67,26.88,0,16.79-6.31,37.49-14.64,48.24C469.44,90.65,459.63,96.29,450,96.29A24.36,24.36,0,0,1,433,88.9c-6.19-6.18-9.28-14.78-9.28-25.53,0-19.89,9-40.32,22.44-50.93,6.32-5,13.44-7.93,19.08-7.93,3,0,4.17.94,4.17,3.22,0,2-.27,3.77-1.21,8.07Zm-3.63,9.14c-.67,2.29-.8,2.69-1.34,3.36a16,16,0,0,1-2.69,1.88c-4.84,3.09-8.33,7.53-11.28,14.25s-4.57,13.7-4.57,19.35,2.68,10.08,6,10.08c7.8,0,15.86-19.89,15.86-39A41.2,41.2,0,0,0,467,21.44,11,11,0,0,0,466.48,23.32Z"/><path class="cls-2" d="M667,39.05l2.15-8.34,2.82-10.88,2-7.53c1.75-5.77,2.29-6.58,4.84-6.58a47.07,47.07,0,0,1,13.17,3c2.15,1.07,3.36,2.68,3.36,4.56,0,3.23-13.17,54-19.22,74.18-1.88,6.32-2.69,6.86-8.33,6.86-9.14,0-14-1.89-14-5.65,0-1.61,2.55-11.29,7.93-29.7.94-3.09,1.07-3.76,2-7.12l-1,1.61c-.53,1.08-1.07,2.15-1.61,3.09-4,6.59-4.84,7.13-9.41,7h-6.44c-.68,3.09-.94,4.44-2.69,11.42-.94,3.36-1.61,6.19-2,8.2-1.48,6.45-2,7.8-3.09,9.14s-2.82,2.15-5.1,2.15a32.73,32.73,0,0,1-11-2.15c-3-1.21-3.9-2.15-3.9-3.76s.54-3.77,3.36-15c.8-2.69,1.48-5.51,2.15-8.34l.54-1.61c-3.63-.67-4.84-2-4.84-4.84,0-4,3.22-14.51,5.24-16.66,1.07-1.21,2-1.48,5.78-1.48l.27-1.21c.4-1.21.8-2.55,1.21-3.89,2.41-8.74,7-23.25,7.92-25.54a6.37,6.37,0,0,1,6.32-4.16,32.2,32.2,0,0,1,10.61,2.55c2.42,1.08,3.63,2.82,3.63,5.11,0,1.48,0,1.48-2.15,8.2l-2.15,7-2.95,10-.68,2,14.65.41Z"/><path class="cls-4" d="M742.74,14.18C752,6.12,753,5.45,755,5.45c5.38,0,9.68,12.09,9.68,26.88,0,16.79-6.32,37.49-14.65,48.24-7.93,10.08-17.74,15.72-27.41,15.72a24.36,24.36,0,0,1-16.93-7.39c-6.18-6.18-9.27-14.78-9.27-25.53,0-19.89,9-40.32,22.44-50.93,6.31-5,13.43-7.93,19.08-7.93,3,0,4.16.94,4.16,3.22,0,2-.27,3.77-1.21,8.07Zm-3.62,9.14c-.68,2.29-.81,2.69-1.35,3.36a15.68,15.68,0,0,1-2.68,1.88c-4.84,3.09-8.33,7.53-11.29,14.25s-4.57,13.7-4.57,19.35,2.69,10.08,6,10.08c7.79,0,15.85-19.89,15.85-39a41.56,41.56,0,0,0-1.47-11.83A11,11,0,0,0,739.12,23.32Z"/><path class="cls-1" d="M797.29,58.4l-1.88,7c-1.47,6.45-2.95,12.37-4.56,19.35-2,9.41-2.69,10.49-6.72,10.49-8.34,0-15.86-3-15.86-6.32,0-.81,0-.81,1.21-5.64C772,72.5,775,61.49,778.75,48.05c2.82-9.81,3.36-12.23,4.3-16.13l-4.84,1.75c-2.28.81-3.09,1.08-3.89,1.08-1.75,0-2.69-1.21-2.69-3.5,0-6.45,3.36-16.39,6.58-19.62,3.5-3.49,14.38-6.18,25.4-6.18,9,0,16.53,2.15,21.77,6.05,6.31,4.83,10.35,13.3,10.35,21.77,0,11.15-7.12,23.78-17.47,30.9-5.24,3.77-12,6.18-16.67,6.18-1.47,0-2.14-.4-2.55-1.34a34.81,34.81,0,0,1-1.21-9.67l.14-3.9Zm-3.89-29c1.48.54,3.09,1.08,4.57,1.48,3.49,1.07,5.64,2.95,5.64,5.1,0,1.08-1.07,5.11-3.36,12.23,7.53-1.74,12.9-7.12,12.9-12.9,0-5.1-3.76-7.79-10.88-7.79a59.26,59.26,0,0,0-10.89,1.21A6.79,6.79,0,0,0,793.4,29.37Z"/><path class="cls-5" d="M524.66,58.4l-1.88,7c-1.48,6.45-2.95,12.37-4.57,19.35-2,9.41-2.68,10.49-6.71,10.49-8.34,0-15.86-3-15.86-6.32,0-.81,0-.81,1.21-5.64,2.55-10.76,5.51-21.77,9.27-35.21,2.82-9.81,3.36-12.23,4.3-16.13l-4.84,1.75c-2.28.81-3.09,1.08-3.89,1.08-1.75,0-2.69-1.21-2.69-3.5,0-6.45,3.36-16.39,6.58-19.62C509.08,8.14,520,5.45,531,5.45c9,0,16.53,2.15,21.77,6.05,6.31,4.83,10.35,13.3,10.35,21.77,0,11.15-7.13,23.78-17.47,30.9-5.24,3.77-12,6.18-16.67,6.18-1.47,0-2.15-.4-2.55-1.34a34.81,34.81,0,0,1-1.21-9.67l.14-3.9Zm-3.89-29c1.47.54,3.09,1.08,4.57,1.48C528.83,31.92,531,33.8,531,36c0,1.08-1.08,5.11-3.36,12.23,7.52-1.74,12.9-7.12,12.9-12.9,0-5.1-3.76-7.79-10.88-7.79a59.26,59.26,0,0,0-10.89,1.21A6.79,6.79,0,0,0,520.77,29.37Z"/></svg>