<svg id="Layer_1" data-name="Layer 1" xmlns="http://www.w3.org/2000/svg" viewBox="0 0 391 311.56"><defs><style>.cls-1{fill:#00b3a4;}.cls-2{fill:#fff;}</style></defs><polygon class="cls-1" points="222.4 73.36 201.48 73.36 201.48 40.48 189.52 40.48 189.52 73.36 168.6 73.36 168.6 7.61 156.65 7.61 156.65 85.31 189.52 85.31 201.48 85.31 234.35 85.31 234.35 7.61 222.4 7.61 222.4 73.36"/><polygon class="cls-1" points="65.5 85.31 77.46 85.31 77.46 19.56 131.25 19.56 131.25 85.31 143.2 85.31 143.2 7.61 65.5 7.61 65.5 85.31"/><path class="cls-1" d="M286.65,7.61A38.85,38.85,0,1,0,325.5,46.46,38.9,38.9,0,0,0,286.65,7.61Zm0,65.75a26.9,26.9,0,1,1,26.89-26.9A26.93,26.93,0,0,1,286.65,73.36Z"/><polygon class="cls-1" points="131.25 168.99 110.33 168.99 110.33 136.11 98.38 136.11 98.38 168.99 77.46 168.99 77.46 103.24 65.5 103.24 65.5 180.94 98.38 180.94 110.33 180.94 143.2 180.94 143.2 103.24 131.25 103.24 131.25 168.99"/><polygon class="cls-1" points="247.8 180.94 259.75 180.94 259.75 115.19 313.54 115.19 313.54 180.94 325.5 180.94 325.5 103.24 247.8 103.24 247.8 180.94"/><path class="cls-1" d="M195.5,103.24a38.85,38.85,0,1,0,38.85,38.85A38.9,38.9,0,0,0,195.5,103.24Zm0,65.75a26.9,26.9,0,1,1,26.9-26.9A26.93,26.93,0,0,1,195.5,169Z"/><polygon class="cls-1" points="313.54 264.62 292.63 264.62 292.63 231.74 280.67 231.74 280.67 264.62 259.75 264.62 259.75 198.87 247.8 198.87 247.8 276.57 280.67 276.57 292.63 276.57 325.5 276.57 325.5 198.87 313.54 198.87 313.54 264.62"/><polygon class="cls-1" points="156.65 198.87 156.65 276.57 168.6 276.57 168.6 210.82 222.4 210.82 222.4 276.57 234.35 276.57 234.35 198.87 156.65 198.87"/><path class="cls-1" d="M104.35,198.87a38.85,38.85,0,1,0,38.85,38.85A38.9,38.9,0,0,0,104.35,198.87Zm0,65.75a26.9,26.9,0,1,1,26.9-26.9A26.93,26.93,0,0,1,104.35,264.62Z"/><path class="cls-2" d="M97.47,107.59c-2.12,4-2.12,4-2.61,4.6a3.65,3.65,0,0,1-3,1.09,9.17,9.17,0,0,1-5.21-1.64c-.55-.48-.61-.91-.61-3.51,0-2.3.12-6.66.24-8.6.43-6.84.43-6.84.49-8.41L82,108.07c-.19.73-.37,1.39-.43,1.7-.66,2.6-1.39,3.45-3,3.45A13.72,13.72,0,0,1,73.43,112a1.76,1.76,0,0,1-1.15-1.58c0-1.33,1.33-6.48,3.33-12.89C79.79,84.16,82.15,77.25,83.42,75c.67-1.27,1.27-1.57,3.09-1.57a19.1,19.1,0,0,1,6.29,1.33,2.56,2.56,0,0,1,1.58,2.36c.18,1.64.36,6.84.36,11.69a47.11,47.11,0,0,1-.6,8.53,145.06,145.06,0,0,1,9.62-18.71c2.61-4.36,3.15-5,4.91-5a14.8,14.8,0,0,1,5.81,1.45,2.38,2.38,0,0,1,1.51,2.3,30.69,30.69,0,0,1-.3,3.46l-2.85,25.91c-.54,4.78-.54,4.78-1.15,5.57s-1.51,1.15-3.15,1.15a13.47,13.47,0,0,1-4.6-.79,2,2,0,0,1-1.51-1.94c0-1.15,1.88-12,2.66-15.25.55-2.37.67-2.91.79-3.76Z"/><path class="cls-2" d="M126.06,110.31c-1.27,2.6-1.7,3.09-3,3.09a12.73,12.73,0,0,1-5.81-1.94,2.19,2.19,0,0,1-1-1.82c0-.6.12-.9,1.21-3.33l1-2.42c-1-.12-1.27-.42-1.27-1.33a27.24,27.24,0,0,1,1.45-6.3c.85-2,1.63-2.6,3.39-2.48a10.45,10.45,0,0,0,1.27.06,8.63,8.63,0,0,0,.36-.79c1-1.87,1.88-3.81,2.85-5.75,1.7-3.51,5.57-10.65,6.66-12.17.91-1.39,1.51-1.75,2.79-1.75a28.63,28.63,0,0,1,5.08.78c2.48.55,3,1,3.27,3.4.18,1.33.43,8.53.43,11.92s-.25,11.45-.49,16.65c-.06,1.7-.12,2.85-.12,3.39-.06,3.09-1,3.94-4.48,3.94-3.75,0-5-.85-5-3.27l.06-1.64.49-8.59c-1.21,2.84-2.06,3.81-3.27,3.81h-2.73Zm9.74-17.38c.37-3.93.43-4.23.55-5.26l.24-2.18a11.07,11.07,0,0,0,.12-1.27l-.42,1.21c-.24.66-.49,1.33-.79,2s-.6,1.7-1,2.61c-.9,2.42-1,2.66-1.39,3.81h2.54Z"/><path class="cls-2" d="M162.94,100.5c-.73,0-1-.36-1-1.33,0-2.78,1-6.42,1.94-7.08s6.36-1.58,10.17-1.58,5,.43,5,1.88c0,1.88-1,5.57-1.76,6.24-.36.3-.61.36-1.76.54-2,8.72-7.87,14.53-14.71,14.53S149.32,108,149.32,99.9c0-6.66,2.9-15.68,6.6-20.35,3.45-4.36,7.75-6.6,12.71-6.6,4.54,0,7.93,1.88,9.63,5.27a10.89,10.89,0,0,1,1.15,4.66c0,1.58-.3,2.43-1.15,3-1.09.79-4.12,1.45-6.78,1.45-1.34,0-2-.18-2.37-.66-.24-.31-.24-.31-.24-2s-.48-2.36-1.63-2.36c-1.64,0-3.27,1.39-4.79,4.11a29.39,29.39,0,0,0-3.39,12.9c0,2.79.91,4.48,2.43,4.48,1.27,0,2.6-1.33,3.33-3.39h-.55l-.85.12Z"/><path class="cls-2" d="M188.56,110.31c-1.27,2.6-1.69,3.09-3,3.09a12.73,12.73,0,0,1-5.81-1.94,2.22,2.22,0,0,1-1-1.82c0-.6.12-.9,1.21-3.33l1-2.42c-1-.12-1.27-.42-1.27-1.33a27.77,27.77,0,0,1,1.45-6.3c.85-2,1.64-2.6,3.39-2.48a10.52,10.52,0,0,0,1.28.06,8.63,8.63,0,0,0,.36-.79c1-1.87,1.88-3.81,2.84-5.75,1.7-3.51,5.58-10.65,6.66-12.17.91-1.39,1.52-1.75,2.79-1.75a28.58,28.58,0,0,1,5.09.78c2.48.55,3,1,3.27,3.4.18,1.33.42,8.53.42,11.92s-.24,11.45-.48,16.65c-.06,1.7-.13,2.85-.13,3.39-.06,3.09-1,3.94-4.48,3.94-3.75,0-5-.85-5-3.27l.06-1.64.48-8.59c-1.21,2.84-2.06,3.81-3.27,3.81h-2.72Zm9.75-17.38c.36-3.93.42-4.23.54-5.26l.25-2.18a11.07,11.07,0,0,0,.12-1.27l-.43,1.21c-.24.66-.48,1.33-.78,2s-.61,1.7-1,2.61c-.91,2.42-1,2.66-1.4,3.81h2.55Z"/><path class="cls-2" d="M222.72,102.14a26.44,26.44,0,0,1-2.48,2.84c.3,0,.42,0,.48-.06h.79l1.39-.12h2.36a34.42,34.42,0,0,0,4.66-.18h.49c.78,0,1.09.42,1.09,1.63a12.74,12.74,0,0,1-1.64,5.45c-.66,1.15-1.81,1.52-4.72,1.52h-9.45c-3.81,0-4.23-.12-5-1.58a15.89,15.89,0,0,1-1.7-5.33c0-.9,0-.9,1.34-2.66l14-18.65a13,13,0,0,1,3.09-2.9h-1l-3.39.18c-.42.06-1.88.06-3.45.12a30.49,30.49,0,0,0-3.15.12h-.42c-1,0-1.46-.36-1.46-1.09a21.43,21.43,0,0,1,2-6.66c.61-1.33.73-1.39,2.85-1.39h11.86c2.91,0,3.27.12,4,1.27a19.45,19.45,0,0,1,2.18,7.51,3.66,3.66,0,0,1-1,2Z"/><path class="cls-2" d="M255.54,76.34a19.11,19.11,0,0,1-1.09,4.24c-.54,1.58-4.6,16.29-5.33,19.32-2.42,9.81-2.72,10.9-3.08,11.93s-1.27,1.33-3.33,1.33a14.58,14.58,0,0,1-5.57-1.33,2.55,2.55,0,0,1-1.58-2.25c0-2,4.36-18.16,7.63-28.33,2.24-7,2.24-7,2.85-7.45a3,3,0,0,1,2.06-.48C252.7,73.32,255.54,74.47,255.54,76.34Z"/><path class="cls-2" d="M268.2,88.94c-.42,5.08-.54,6-2.84,14.83-.61,2.3-1,4.24-1.34,5.57-.78,3.45-1.33,4.06-3.69,4.06a14.14,14.14,0,0,1-4.78-1c-1.27-.54-1.82-1.15-1.82-2a3.91,3.91,0,0,1,.24-1.33c.43-1.82.85-3.57,1.33-5.27,3.15-12.47,4.36-16.89,7.51-27.61.61-2.12,1.34-2.9,2.67-2.9a15.44,15.44,0,0,1,6.35,1.75c1.88,1,2.67,2.36,3.82,6.6a61.4,61.4,0,0,1,1.75,11.57,109.46,109.46,0,0,1,3-15c1.21-4.78,1.33-4.9,3.09-4.9a12.81,12.81,0,0,1,5,1.21c1.52.66,1.94,1.21,1.94,2.18,0,2.48-5.14,22.76-8.11,31.78a7.05,7.05,0,0,0-.24,1.22,3.77,3.77,0,0,0,.24,1.15,1.85,1.85,0,0,1,.06.6c0,1.21-1,1.7-3.33,1.7a14.25,14.25,0,0,1-6.12-1.52c-1.15-.66-1.27-1-2.18-6.17-1.09-6-1.09-6-2.36-15.44Z"/><path class="cls-2" d="M31.76,201.11c1.51,2.54,1.51,2.54,1.51,3.27,0,.91-.84,1.87-2.6,2.9a11.73,11.73,0,0,1-4.6,1.82c-.91,0-.91,0-3.45-4.66l-6-11-1.81,7.45a26.41,26.41,0,0,1-1,3.63c-.43.48-.91.66-2.24.66a15.12,15.12,0,0,1-5.45-1c-1.15-.43-1.58-.91-1.58-1.64,0-.91,1.4-6.17,4.42-16.95,1.15-4,2-6.9,2.31-8.06.18-.72.36-1.39.54-2.05a9.85,9.85,0,0,1-3.69,1c-.85,0-1.28-.49-1.28-1.46,0-1.93,1.7-7,2.61-7.69,1.15-1,8.78-2.36,12.77-2.36,8.3,0,13.93,4.73,13.93,11.69a15,15,0,0,1-4.36,10.53A24.36,24.36,0,0,1,26,191.12Zm-16.53-26,1.76.37c2.9.6,3.75,1.15,3.75,2.54,0,1-.36,2.3-1.45,5.57l-.12.48a.65.65,0,0,0,.3.06c3.09.19,6.72-3.14,6.72-6.05,0-2.36-2.3-4.06-5.45-4.06a25.27,25.27,0,0,0-6.24,1Z"/><path class="cls-2" d="M61,175.32c-3.08-.19-6.9-.31-11.5-.43.54.24,1.09.55,1.27.61,2.3,1.15,2.6,1.39,2.6,2a17.28,17.28,0,0,1-.84,3.46L53,181c.3,0,1.09,0,2.24.06,7.51.18,7.93.24,7.93,1.57a20,20,0,0,1-1.57,6c-.79,1.87-1.27,2.36-2.54,2.36l-1.52-.06c-2.36-.19-6.66-.31-8.11-.31l-1.21,5.15c1.15.06,1.69.06,4.24.06,4.05.06,5.45.12,6.11.3s1,.73,1,1.58c0,2-1.09,5.57-2.06,6.6a3.14,3.14,0,0,1-2.48.78L49.33,205H46c-4,0-4.78-.18-6.06-1.69-1.45-1.76-2.3-3.33-2.3-4.54a6.59,6.59,0,0,1,.31-1.88l1.45-6.24c-1.39-.18-1.82-.54-1.82-1.57a18.83,18.83,0,0,1,1.82-7.15c.54-.84.79-.9,2.91-1L44,174.89c-2.3,0-3-.36-3-1.39,0-1.33,1.76-7.15,2.42-7.87s1.58-.79,7.94-.79c2.78,0,5.51.06,9.81.3,1.39.12,2.9.19,3,.19,2.67.06,3.27.42,3.27,1.75a24.09,24.09,0,0,1-1.75,6.78,2.27,2.27,0,0,1-2.43,1.52Z"/><path class="cls-2" d="M73.68,201.83c-1.27,2.61-1.7,3.09-3,3.09A12.83,12.83,0,0,1,64.84,203a2.22,2.22,0,0,1-1-1.82c0-.61.12-.91,1.21-3.33l1-2.42c-1-.12-1.27-.43-1.27-1.34a27.58,27.58,0,0,1,1.45-6.29c.85-2,1.64-2.61,3.39-2.49a9,9,0,0,0,1.27.07c.12-.25.24-.49.37-.79,1-1.88,1.87-3.82,2.84-5.75,1.7-3.51,5.57-10.66,6.66-12.17.91-1.4,1.52-1.76,2.79-1.76a27.82,27.82,0,0,1,5.08.79c2.49.54,3,1,3.27,3.39.18,1.33.43,8.54.43,11.93s-.25,11.44-.49,16.65c-.06,1.69-.12,2.84-.12,3.39-.06,3.08-1,3.93-4.48,3.93-3.75,0-5-.85-5-3.27l.07-1.63.48-8.6c-1.21,2.85-2.06,3.82-3.27,3.82H76.77Zm9.75-17.37c.36-3.94.42-4.24.54-5.27l.24-2.18a10.81,10.81,0,0,0,.12-1.27L83.91,177c-.24.67-.48,1.33-.79,2.06s-.6,1.69-1,2.6c-.9,2.42-1,2.67-1.39,3.82H83.3Z"/><path class="cls-2" d="M116.49,194.69c1.27,0,1.7.3,1.7,1.27,0,1.76-1.58,6.84-2.49,8s-.9,1-6.41,1c-4.6-.06-6.91-.12-7-.12-1.39-.18-2.3-1-3.87-3.45-1.76-2.72-2.24-3.69-2.24-4.72,0-2.06,1.51-7.93,6.54-24.95,0-.06.3-1.21,1-3.45,1-3.33,1.15-3.57,3.09-3.57a17.78,17.78,0,0,1,6.65,1.63,1.17,1.17,0,0,1,.73,1.09c0,.67-.18,1.46-1.27,5-1.88,6-5.27,18.28-6.11,22.22a16,16,0,0,0,2.6.12c2,0,2.12,0,6.23-.12Z"/><path class="cls-2" d="M139.39,167.87a20.09,20.09,0,0,1-1.09,4.24c-.55,1.57-4.6,16.28-5.33,19.31-2.42,9.81-2.73,10.9-3.09,11.93s-1.27,1.33-3.33,1.33a14.63,14.63,0,0,1-5.57-1.33,2.52,2.52,0,0,1-1.57-2.24c0-2.06,4.35-18.17,7.62-28.34,2.25-7,2.25-7,2.85-7.44a3,3,0,0,1,2.06-.49C136.54,164.84,139.39,166,139.39,167.87Z"/><path class="cls-2" d="M150.29,193.66a25.57,25.57,0,0,1-2.48,2.85c.3,0,.42,0,.48-.06h.79l1.39-.12h2.36a32.77,32.77,0,0,0,4.67-.19H158c.79,0,1.09.43,1.09,1.64a12.82,12.82,0,0,1-1.64,5.45c-.66,1.15-1.81,1.51-4.72,1.51h-9.44c-3.82,0-4.24-.12-5-1.57a16,16,0,0,1-1.69-5.33c0-.91,0-.91,1.33-2.67l14-18.64a13.06,13.06,0,0,1,3.08-2.91h-1l-3.39.18c-.42.06-1.87.06-3.45.12a30.64,30.64,0,0,0-3.15.12h-.42c-1,0-1.45-.36-1.45-1.09a21.43,21.43,0,0,1,2-6.66c.61-1.33.73-1.39,2.85-1.39h11.87c2.9,0,3.27.12,4,1.27a19.5,19.5,0,0,1,2.18,7.51,3.66,3.66,0,0,1-1,2Z"/><path class="cls-2" d="M185.6,168.66c4.17-3.64,4.6-3.94,5.51-3.94,2.42,0,4.36,5.45,4.36,12.11,0,7.57-2.85,16.89-6.6,21.74-3.58,4.54-8,7.08-12.36,7.08a11,11,0,0,1-7.62-3.33c-2.79-2.79-4.18-6.66-4.18-11.5,0-9,4.06-18.17,10.11-22.95,2.84-2.24,6.05-3.57,8.6-3.57,1.33,0,1.87.42,1.87,1.45a16.24,16.24,0,0,1-.54,3.63ZM184,172.77a3.89,3.89,0,0,1-.6,1.52,8.3,8.3,0,0,1-1.21.84,13.58,13.58,0,0,0-5.09,6.42,23.67,23.67,0,0,0-2.06,8.72c0,2.54,1.21,4.54,2.73,4.54,3.51,0,7.14-9,7.14-17.56a18.45,18.45,0,0,0-.67-5.33A5.18,5.18,0,0,0,184,172.77Z"/><path class="cls-2" d="M210.07,170.29c-.3,10.35-.49,14.05-.85,18.22,2.18-4.84,7-16.89,8.48-21,.66-2.05,1.27-2.6,2.9-2.6a14.71,14.71,0,0,1,5.45,1.09c1.15.48,1.7,1,1.7,1.64,0,1.39-2.79,8.35-6,15.13-3.15,6.48-6.35,12.41-11.2,20.47-.78,1.33-1.45,1.81-2.42,1.81a18.2,18.2,0,0,1-6.42-1.81c-1.09-.55-1.15-.79-1.21-6.78,0-1-.06-3.46-.12-7s-.12-5.14-.12-7.57l.06-10.53-.06-3.63c0-2.12.6-3,2.06-3a26.91,26.91,0,0,1,6.54,1.27c1,.49,1.27,1.15,1.27,2.85Z"/><path class="cls-2" d="M232.3,201.83c-1.28,2.61-1.7,3.09-3,3.09a12.79,12.79,0,0,1-5.81-1.93,2.22,2.22,0,0,1-1-1.82c0-.61.12-.91,1.21-3.33l1-2.42c-1-.12-1.28-.43-1.28-1.34a27.11,27.11,0,0,1,1.46-6.29c.85-2,1.63-2.61,3.39-2.49a9,9,0,0,0,1.27.07c.12-.25.24-.49.36-.79,1-1.88,1.88-3.82,2.85-5.75,1.69-3.51,5.57-10.66,6.66-12.17.91-1.4,1.51-1.76,2.78-1.76a27.9,27.9,0,0,1,5.09.79c2.48.54,3,1,3.27,3.39.18,1.33.42,8.54.42,11.93s-.24,11.44-.48,16.65c-.06,1.69-.12,2.84-.12,3.39-.06,3.08-1,3.93-4.48,3.93-3.76,0-5-.85-5-3.27l.06-1.63.49-8.6c-1.21,2.85-2.06,3.82-3.27,3.82h-2.73ZM242,184.46c.37-3.94.43-4.24.55-5.27l.24-2.18a10.81,10.81,0,0,0,.12-1.27l-.42,1.21c-.24.67-.49,1.33-.79,2.06s-.6,1.69-1,2.6c-.91,2.42-1,2.67-1.39,3.82h2.54Z"/><path class="cls-2" d="M268.09,180.46c-.43,5.09-.55,6-2.85,14.84-.6,2.3-1,4.23-1.33,5.57-.79,3.45-1.33,4-3.69,4a13.91,13.91,0,0,1-4.79-1c-1.27-.54-1.81-1.15-1.81-2a4,4,0,0,1,.24-1.34c.42-1.81.85-3.57,1.33-5.26,3.15-12.48,4.36-16.9,7.51-27.61.61-2.12,1.33-2.91,2.66-2.91a15.5,15.5,0,0,1,6.36,1.76c1.88,1,2.66,2.36,3.82,6.6a62,62,0,0,1,1.75,11.56,108.25,108.25,0,0,1,3-15c1.21-4.78,1.33-4.9,3.08-4.9a13,13,0,0,1,5,1.21c1.51.67,1.94,1.21,1.94,2.18,0,2.48-5.15,22.77-8.11,31.79a6.31,6.31,0,0,0-.25,1.21,3.64,3.64,0,0,0,.25,1.15,1.88,1.88,0,0,1,.06.61c0,1.21-1,1.69-3.33,1.69a14.21,14.21,0,0,1-6.12-1.51c-1.15-.67-1.27-1-2.18-6.18-1.09-6-1.09-6-2.36-15.44Z"/><path class="cls-2" d="M303.58,180.46c-.43,5.09-.55,6-2.85,14.84-.6,2.3-1,4.23-1.33,5.57-.79,3.45-1.33,4-3.69,4a14,14,0,0,1-4.79-1c-1.27-.54-1.81-1.15-1.81-2a4,4,0,0,1,.24-1.34c.42-1.81.85-3.57,1.33-5.26,3.15-12.48,4.36-16.9,7.51-27.61.61-2.12,1.33-2.91,2.66-2.91a15.46,15.46,0,0,1,6.36,1.76c1.88,1,2.67,2.36,3.82,6.6a62,62,0,0,1,1.75,11.56,108.25,108.25,0,0,1,3-15c1.21-4.78,1.33-4.9,3.09-4.9a13,13,0,0,1,5,1.21c1.51.67,1.94,1.21,1.94,2.18,0,2.48-5.15,22.77-8.11,31.79a7.21,7.21,0,0,0-.25,1.21,3.64,3.64,0,0,0,.25,1.15,1.88,1.88,0,0,1,.06.61c0,1.21-1,1.69-3.33,1.69a14.25,14.25,0,0,1-6.12-1.51c-1.15-.67-1.27-1-2.18-6.18-1.09-6-1.09-6-2.36-15.44Z"/><path class="cls-2" d="M338.16,201.47c-1.39,2.79-2.06,3.39-3.69,3.39A11.94,11.94,0,0,1,330,204c-1.94-.66-2.6-1.15-2.6-2a6.51,6.51,0,0,1,1.15-3c1.21-2.3,2.54-5.09,4.11-8.42-.3-1.81-.48-3-1-6.11-.72-3.7-1.15-6.36-1.39-7.75l-1-6a18.84,18.84,0,0,1-.48-3.57c0-1.69.78-2.42,2.54-2.42,2.42,0,5.87.85,6.42,1.57.73.91,1.39,6.18,1.39,10.84,0,.67,0,1.09-.06,2.18.3-.6.49-1,.55-1.09.66-1.63,1.33-3.21,2-4.78,3-7.09,4.06-8.6,5.94-8.6a16,16,0,0,1,5.63,1.21,2,2,0,0,1,1.33,1.82c0,.79-.18,1.33-1.33,3.57Z"/><path class="cls-2" d="M373.71,179.86l1-3.76,1.27-4.9.91-3.39c.79-2.61,1-3,2.18-3a21.35,21.35,0,0,1,5.93,1.33,2.37,2.37,0,0,1,1.52,2.06c0,1.46-5.94,24.34-8.66,33.42-.85,2.85-1.21,3.09-3.75,3.09-4.12,0-6.3-.85-6.3-2.54,0-.73,1.15-5.09,3.57-13.38.42-1.4.48-1.7.91-3.21l-.43.72c-.24.49-.48,1-.72,1.4-1.82,3-2.18,3.21-4.24,3.15H364c-.3,1.39-.42,2-1.21,5.14-.42,1.52-.72,2.79-.91,3.7-.66,2.9-.9,3.51-1.39,4.11a2.64,2.64,0,0,1-2.3,1,14.64,14.64,0,0,1-5-1c-1.34-.54-1.76-1-1.76-1.69s.24-1.7,1.51-6.78c.37-1.22.67-2.49,1-3.76l.25-.72c-1.64-.31-2.19-.91-2.19-2.18,0-1.82,1.46-6.54,2.37-7.51.48-.55.91-.67,2.6-.67l.12-.54c.18-.55.36-1.15.55-1.76,1.09-3.93,3.14-10.47,3.57-11.5a2.87,2.87,0,0,1,2.84-1.88,14.71,14.71,0,0,1,4.79,1.15,2.42,2.42,0,0,1,1.63,2.3c0,.67,0,.67-1,3.7l-1,3.14-1.33,4.48-.3.91,6.6.18Z"/><path class="cls-2" d="M149.5,268.25a19.38,19.38,0,0,1-1.09,4.24c-.55,1.57-4.6,16.29-5.33,19.31-2.42,9.81-2.73,10.9-3.09,11.93s-1.27,1.33-3.33,1.33a14.44,14.44,0,0,1-5.57-1.33,2.52,2.52,0,0,1-1.57-2.24c0-2.06,4.36-18.16,7.63-28.34,2.24-7,2.24-7,2.84-7.44a3,3,0,0,1,2.06-.49C146.65,265.22,149.5,266.37,149.5,268.25Z"/><path class="cls-2" d="M155.8,275a6.45,6.45,0,0,0-.67.24,8.33,8.33,0,0,0-1.09.49,5.7,5.7,0,0,1-1.69.48c-.43,0-.73-.36-.73-.91a13.69,13.69,0,0,1,.73-3c1.39-5.27,1.39-5.27,2.24-5.88,1.51-1,5.81-1.87,9.44-1.87,10.6,0,17.32,6.29,17.32,16.22,0,7.81-4.6,16.11-11.32,20.53a22.42,22.42,0,0,1-12.23,4c-2,0-2.3-.18-4.6-2.72-2.55-2.85-3.09-3.69-3.09-5.09a44.26,44.26,0,0,1,2-9.26ZM161,294.59c5.39-.55,10.05-6.54,10.05-12.9,0-5-3.39-8.11-8.78-8.11a10.74,10.74,0,0,0-3,.42c3.94.67,6,1.82,6,3.27a13,13,0,0,1-.61,3Z"/><path class="cls-2" d="M206.91,275.7c-3.09-.19-6.9-.31-11.5-.43.54.24,1.09.55,1.27.61,2.3,1.15,2.6,1.39,2.6,2a16.87,16.87,0,0,1-.85,3.45l.55.06c.3,0,1.09,0,2.24.06,7.51.18,7.93.24,7.93,1.57a20,20,0,0,1-1.57,6c-.79,1.87-1.27,2.36-2.54,2.36l-1.52-.06c-2.36-.18-6.66-.31-8.11-.31l-1.21,5.15c1.15.06,1.69.06,4.23.06,4.06.06,5.45.12,6.12.31s1,.72,1,1.57c0,2-1.09,5.57-2.06,6.6a3.14,3.14,0,0,1-2.48.79l-5.69-.13H192c-4,0-4.79-.18-6.06-1.69-1.45-1.76-2.3-3.33-2.3-4.54a6.8,6.8,0,0,1,.3-1.88l1.46-6.24c-1.4-.18-1.82-.54-1.82-1.57a18.73,18.73,0,0,1,1.82-7.14c.54-.85.78-.91,2.9-1l1.7-6.06c-2.3,0-3-.36-3-1.39,0-1.33,1.76-7.14,2.42-7.87s1.58-.79,7.94-.79c2.78,0,5.5.06,9.8.31,1.4.12,2.91.18,3,.18,2.66.06,3.27.42,3.27,1.75a23.71,23.71,0,0,1-1.76,6.78,2.25,2.25,0,0,1-2.42,1.52Z"/><path class="cls-2" d="M220.48,287a1.3,1.3,0,0,1,.43,1.09,10.91,10.91,0,0,1-.61,2.72,13.32,13.32,0,0,0-.79,3.45,1.48,1.48,0,0,0,1.4,1.64,2.22,2.22,0,0,0,2-1.58c.31-.84.79-2.6,1.76-6.17.73-2.91,1.64-6.12,2.66-9.75s2-7.26,2-7.57c1.21-4.9,1.82-5.69,4.24-5.69a14.26,14.26,0,0,1,5.09,1,2.22,2.22,0,0,1,1.57,2.18,39.78,39.78,0,0,1-1.27,5.45c-1.39,5.09-2.73,10-4.6,17.56-1.52,6.17-2.85,8.9-5.27,11a12.73,12.73,0,0,1-8.23,2.84c-6.42,0-10.84-3.81-10.84-9.2,0-2.66,1.15-7.51,2.18-9.08.48-.73,1.33-1,3-1C217.27,285.93,219.82,286.47,220.48,287Z"/></svg>