<svg width="320" height="75" fill="none" xmlns="http://www.w3.org/2000/svg"><mask id="a" fill="#fff"><path d="M-16.944 7.913C-9.132 1.335-8.33.777-6.629.777c4.532 0 8.162 9.878 8.162 21.966 0 13.713-5.333 30.63-12.343 39.417C-17.494 70.388-25.756 75-33.918 75c-5.108 0-10.315-2.184-14.27-6.044C-53.397 63.908-56 56.87-56 48.106c0-16.237 7.586-32.936 18.902-41.601C-31.79 2.427-25.78 0-21.025 0c2.504 0 3.506.777 3.506 2.646 0 1.65-.226 3.082-1.027 6.577l1.602-1.31zm-3.054 7.451c-.576 1.869-.676 2.184-1.127 2.743-.45.437-.575.437-2.253 1.529-4.08 2.524-7.01 6.14-9.514 11.626-2.378 5.389-3.855 11.19-3.855 15.801 0 4.612 2.253 8.228 5.107 8.228 6.56 0 13.37-16.238 13.37-31.844 0-3.957-.351-6.262-1.252-9.66-.25.825-.476 1.261-.476 1.577zM29.023 44.03l-1.578 5.703C26.194 55 24.942 59.83 23.59 65.534c-1.703 7.694-2.253 8.568-5.658 8.568-7.01 0-13.37-2.427-13.37-5.17 0-.655 0-.655 1.027-4.612 2.153-8.786 4.632-17.79 7.811-28.762 2.379-8.01 2.83-10 3.63-13.18l-4.08 1.433c-1.928.655-2.604.873-3.28.873-1.477 0-2.253-.995-2.253-2.864 0-5.267 2.829-13.398 5.558-16.019C15.929 2.937 25.092.752 34.38.752c7.587 0 13.92 1.748 18.352 4.952 5.333 3.956 8.713 10.874 8.713 17.791 0 9.102-6.009 19.418-14.722 25.243-4.406 3.082-10.09 5.048-14.045 5.048-1.252 0-1.802-.34-2.153-1.092-.576-1.432-1.026-4.951-1.026-7.912l.1-3.18-.576 2.427zm-3.28-23.715c1.252.437 2.604.874 3.856 1.214 2.954.874 4.756 2.403 4.756 4.175 0 .874-.9 4.175-2.829 10 6.335-1.432 10.866-5.825 10.866-10.534 0-4.175-3.18-6.36-9.163-6.36-2.83 0-5.333.34-9.163.996.75.291 1.326.51 1.677.51zm68.148-1.868c-4.306.437-6.008 1.65-6.008 4.053 0 1.53.901 3.616 3.18 7.015 5.883 8.786 8.161 14.927 8.161 21.747 0 7.694-3.855 14.83-9.864 18.665-4.406 2.864-10.415 4.272-17.776 4.272-7.36 0-12.568-.874-14.27-2.524-1.252-1.093-1.803-2.525-1.803-4.175 0-3.617 2.278-13.714 3.63-16.36.902-1.747 2.704-2.523 6.009-2.523 3.28 0 7.135.436 8.037.873.45.34.676.874.676 2.088 0 .873-.1 1.966-.451 4.271a9.865 9.865 0 001.702.122c3.18 0 5.208-1.53 5.208-4.053 0-2.865-1.803-6.918-6.234-13.714-4.982-7.791-6.234-10.753-6.234-14.927C67.854 10.752 81.999.655 99.55.655c4.982 0 9.513.874 11.216 2.185 1.026.776 1.477 1.869 1.477 3.616 0 3.083-1.127 9.102-2.378 12.185-1.127 2.864-3.405 3.738-9.614 3.738-5.884 0-6.46-.219-6.46-2.428l.1-1.504zm55.03 9.757l1.803-6.796 2.378-8.884 1.703-6.14c1.477-4.71 1.927-5.389 4.08-5.389 2.604 0 8.938 1.432 11.091 2.427 1.803.874 2.83 2.185 2.83 3.738 0 2.646-11.091 44.126-16.199 60.607-1.577 5.17-2.253 5.607-7.01 5.607-7.711 0-11.767-1.53-11.767-4.612 0-1.31 2.153-9.223 6.685-24.272.801-2.524.901-3.082 1.702-5.825l-.801 1.31c-.451.874-.901 1.748-1.352 2.525-3.405 5.388-4.081 5.825-7.936 5.704h-5.433c-.576 2.524-.801 3.616-2.254 9.32a93.203 93.203 0 00-1.702 6.7c-1.252 5.266-1.702 6.359-2.604 7.475-.901 1.214-2.378 1.748-4.306 1.748-2.954 0-6.785-.777-9.288-1.748-2.504-.995-3.28-1.748-3.28-3.082 0-1.311.451-3.083 2.829-12.306.676-2.185 1.252-4.49 1.803-6.796l.45-1.311c-3.054-.558-4.081-1.65-4.081-3.956 0-3.301 2.729-11.845 4.407-13.617.901-.995 1.702-1.213 4.857-1.213l.225-.996c.326-.995.676-2.087 1.026-3.18 2.028-7.135 5.884-18.98 6.685-20.849 1.027-2.306 2.829-3.398 5.333-3.398 2.153 0 6.559.995 8.938 2.088 2.028.873 3.054 2.305 3.054 4.174 0 1.214 0 1.214-1.802 6.7l-1.803 5.703-2.479 8.131-.575 1.65 12.342.34.451-1.577zm63.867-20.291C220.6 1.335 221.401.777 223.103.777c4.532 0 8.162 9.878 8.162 21.966 0 13.713-5.333 30.63-12.343 39.417C212.238 70.388 203.976 75 195.814 75c-5.108 0-10.315-2.184-14.271-6.044-5.207-5.048-7.811-12.087-7.811-20.85 0-16.237 7.586-32.936 18.902-41.601C197.942 2.427 203.951 0 208.707 0c2.504 0 3.506.777 3.506 2.646 0 1.65-.226 3.082-1.027 6.577l1.602-1.31zm-3.079 7.451c-.576 1.869-.676 2.184-1.127 2.743-.45.437-.576.437-2.253 1.529-4.081 2.524-7.01 6.14-9.514 11.626-2.378 5.389-3.855 11.19-3.855 15.801 0 4.612 2.253 8.228 5.107 8.228 6.56 0 13.369-16.238 13.369-31.844 0-3.957-.35-6.262-1.251-9.66-.226.825-.476 1.261-.476 1.577zm49.046 28.666l-1.578 5.703c-1.251 5.267-2.503 10.097-3.855 15.801-1.703 7.694-2.253 8.568-5.658 8.568-7.01 0-13.37-2.427-13.37-5.17 0-.655 0-.655 1.027-4.612 2.153-8.786 4.632-17.79 7.811-28.762 2.379-8.01 2.829-10 3.63-13.18l-4.081 1.433c-1.927.655-2.603.873-3.279.873-1.477 0-2.279-.995-2.279-2.864 0-5.267 2.83-13.398 5.558-16.019 2.955-2.864 12.118-5.049 21.406-5.049 7.586 0 13.921 1.748 18.352 4.952 5.333 3.956 8.713 10.874 8.713 17.791 0 9.102-6.009 19.418-14.722 25.243-4.406 3.082-10.089 5.048-14.045 5.048-1.252 0-1.803-.34-2.153-1.092-.576-1.432-1.027-4.951-1.027-7.912l.101-3.18-.551 2.427zm-3.305-23.715c1.252.437 2.604.874 3.856 1.214 2.954.874 4.756 2.403 4.756 4.175 0 .874-.901 4.175-2.829 10 6.334-1.432 10.866-5.825 10.866-10.534 0-4.175-3.18-6.36-9.163-6.36-2.829 0-5.333.34-9.163.996.776.291 1.351.51 1.677.51zm68.173-1.868c-4.306.437-6.008 1.65-6.008 4.053 0 1.53.901 3.616 3.179 7.015 5.884 8.786 8.162 14.927 8.162 21.747 0 7.694-3.855 14.83-9.839 18.665-4.406 2.864-10.415 4.272-17.776 4.272-7.36 0-12.568-.874-14.27-2.524-1.252-1.093-1.803-2.525-1.803-4.175 0-3.617 2.253-13.714 3.63-16.36.902-1.747 2.704-2.523 6.009-2.523s7.135.436 8.037.873c.45.34.676.874.676 2.088 0 .873-.101 1.966-.451 4.271a9.817 9.817 0 001.702.122c3.18 0 5.208-1.53 5.208-4.053 0-2.865-1.803-6.918-6.234-13.714-4.982-7.791-6.234-10.753-6.234-14.927 0-12.525 14.145-22.622 31.696-22.622 4.982 0 9.513.874 11.216 2.185 1.026.776 1.477 1.869 1.477 3.616 0 3.083-1.127 9.102-2.378 12.185-1.127 2.864-3.405 3.738-9.614 3.738-5.884 0-6.46-.219-6.46-2.428l.075-1.504z"/></mask><path d="M-16.944 7.913C-9.132 1.335-8.33.777-6.629.777c4.532 0 8.162 9.878 8.162 21.966 0 13.713-5.333 30.63-12.343 39.417C-17.494 70.388-25.756 75-33.918 75c-5.108 0-10.315-2.184-14.27-6.044C-53.397 63.908-56 56.87-56 48.106c0-16.237 7.586-32.936 18.902-41.601C-31.79 2.427-25.78 0-21.025 0c2.504 0 3.506.777 3.506 2.646 0 1.65-.226 3.082-1.027 6.577l1.602-1.31zm-3.054 7.451c-.576 1.869-.676 2.184-1.127 2.743-.45.437-.575.437-2.253 1.529-4.08 2.524-7.01 6.14-9.514 11.626-2.378 5.389-3.855 11.19-3.855 15.801 0 4.612 2.253 8.228 5.107 8.228 6.56 0 13.37-16.238 13.37-31.844 0-3.957-.351-6.262-1.252-9.66-.25.825-.476 1.261-.476 1.577zM29.023 44.03l-1.578 5.703C26.194 55 24.942 59.83 23.59 65.534c-1.703 7.694-2.253 8.568-5.658 8.568-7.01 0-13.37-2.427-13.37-5.17 0-.655 0-.655 1.027-4.612 2.153-8.786 4.632-17.79 7.811-28.762 2.379-8.01 2.83-10 3.63-13.18l-4.08 1.433c-1.928.655-2.604.873-3.28.873-1.477 0-2.253-.995-2.253-2.864 0-5.267 2.829-13.398 5.558-16.019C15.929 2.937 25.092.752 34.38.752c7.587 0 13.92 1.748 18.352 4.952 5.333 3.956 8.713 10.874 8.713 17.791 0 9.102-6.009 19.418-14.722 25.243-4.406 3.082-10.09 5.048-14.045 5.048-1.252 0-1.802-.34-2.153-1.092-.576-1.432-1.026-4.951-1.026-7.912l.1-3.18-.576 2.427zm-3.28-23.715c1.252.437 2.604.874 3.856 1.214 2.954.874 4.756 2.403 4.756 4.175 0 .874-.9 4.175-2.829 10 6.335-1.432 10.866-5.825 10.866-10.534 0-4.175-3.18-6.36-9.163-6.36-2.83 0-5.333.34-9.163.996.75.291 1.326.51 1.677.51zm68.148-1.868c-4.306.437-6.008 1.65-6.008 4.053 0 1.53.901 3.616 3.18 7.015 5.883 8.786 8.161 14.927 8.161 21.747 0 7.694-3.855 14.83-9.864 18.665-4.406 2.864-10.415 4.272-17.776 4.272-7.36 0-12.568-.874-14.27-2.524-1.252-1.093-1.803-2.525-1.803-4.175 0-3.617 2.278-13.714 3.63-16.36.902-1.747 2.704-2.523 6.009-2.523 3.28 0 7.135.436 8.037.873.45.34.676.874.676 2.088 0 .873-.1 1.966-.451 4.271a9.865 9.865 0 001.702.122c3.18 0 5.208-1.53 5.208-4.053 0-2.865-1.803-6.918-6.234-13.714-4.982-7.791-6.234-10.753-6.234-14.927C67.854 10.752 81.999.655 99.55.655c4.982 0 9.513.874 11.216 2.185 1.026.776 1.477 1.869 1.477 3.616 0 3.083-1.127 9.102-2.378 12.185-1.127 2.864-3.405 3.738-9.614 3.738-5.884 0-6.46-.219-6.46-2.428l.1-1.504zm55.03 9.757l1.803-6.796 2.378-8.884 1.703-6.14c1.477-4.71 1.927-5.389 4.08-5.389 2.604 0 8.938 1.432 11.091 2.427 1.803.874 2.83 2.185 2.83 3.738 0 2.646-11.091 44.126-16.199 60.607-1.577 5.17-2.253 5.607-7.01 5.607-7.711 0-11.767-1.53-11.767-4.612 0-1.31 2.153-9.223 6.685-24.272.801-2.524.901-3.082 1.702-5.825l-.801 1.31c-.451.874-.901 1.748-1.352 2.525-3.405 5.388-4.081 5.825-7.936 5.704h-5.433c-.576 2.524-.801 3.616-2.254 9.32a93.203 93.203 0 00-1.702 6.7c-1.252 5.266-1.702 6.359-2.604 7.475-.901 1.214-2.378 1.748-4.306 1.748-2.954 0-6.785-.777-9.288-1.748-2.504-.995-3.28-1.748-3.28-3.082 0-1.311.451-3.083 2.829-12.306.676-2.185 1.252-4.49 1.803-6.796l.45-1.311c-3.054-.558-4.081-1.65-4.081-3.956 0-3.301 2.729-11.845 4.407-13.617.901-.995 1.702-1.213 4.857-1.213l.225-.996c.326-.995.676-2.087 1.026-3.18 2.028-7.135 5.884-18.98 6.685-20.849 1.027-2.306 2.829-3.398 5.333-3.398 2.153 0 6.559.995 8.938 2.088 2.028.873 3.054 2.305 3.054 4.174 0 1.214 0 1.214-1.802 6.7l-1.803 5.703-2.479 8.131-.575 1.65 12.342.34.451-1.577zm63.867-20.291C220.6 1.335 221.401.777 223.103.777c4.532 0 8.162 9.878 8.162 21.966 0 13.713-5.333 30.63-12.343 39.417C212.238 70.388 203.976 75 195.814 75c-5.108 0-10.315-2.184-14.271-6.044-5.207-5.048-7.811-12.087-7.811-20.85 0-16.237 7.586-32.936 18.902-41.601C197.942 2.427 203.951 0 208.707 0c2.504 0 3.506.777 3.506 2.646 0 1.65-.226 3.082-1.027 6.577l1.602-1.31zm-3.079 7.451c-.576 1.869-.676 2.184-1.127 2.743-.45.437-.576.437-2.253 1.529-4.081 2.524-7.01 6.14-9.514 11.626-2.378 5.389-3.855 11.19-3.855 15.801 0 4.612 2.253 8.228 5.107 8.228 6.56 0 13.369-16.238 13.369-31.844 0-3.957-.35-6.262-1.251-9.66-.226.825-.476 1.261-.476 1.577zm49.046 28.666l-1.578 5.703c-1.251 5.267-2.503 10.097-3.855 15.801-1.703 7.694-2.253 8.568-5.658 8.568-7.01 0-13.37-2.427-13.37-5.17 0-.655 0-.655 1.027-4.612 2.153-8.786 4.632-17.79 7.811-28.762 2.379-8.01 2.829-10 3.63-13.18l-4.081 1.433c-1.927.655-2.603.873-3.279.873-1.477 0-2.279-.995-2.279-2.864 0-5.267 2.83-13.398 5.558-16.019 2.955-2.864 12.118-5.049 21.406-5.049 7.586 0 13.921 1.748 18.352 4.952 5.333 3.956 8.713 10.874 8.713 17.791 0 9.102-6.009 19.418-14.722 25.243-4.406 3.082-10.089 5.048-14.045 5.048-1.252 0-1.803-.34-2.153-1.092-.576-1.432-1.027-4.951-1.027-7.912l.101-3.18-.551 2.427zm-3.305-23.715c1.252.437 2.604.874 3.856 1.214 2.954.874 4.756 2.403 4.756 4.175 0 .874-.901 4.175-2.829 10 6.334-1.432 10.866-5.825 10.866-10.534 0-4.175-3.18-6.36-9.163-6.36-2.829 0-5.333.34-9.163.996.776.291 1.351.51 1.677.51zm68.173-1.868c-4.306.437-6.008 1.65-6.008 4.053 0 1.53.901 3.616 3.179 7.015 5.884 8.786 8.162 14.927 8.162 21.747 0 7.694-3.855 14.83-9.839 18.665-4.406 2.864-10.415 4.272-17.776 4.272-7.36 0-12.568-.874-14.27-2.524-1.252-1.093-1.803-2.525-1.803-4.175 0-3.617 2.253-13.714 3.63-16.36.902-1.747 2.704-2.523 6.009-2.523s7.135.436 8.037.873c.45.34.676.874.676 2.088 0 .873-.101 1.966-.451 4.271a9.817 9.817 0 001.702.122c3.18 0 5.208-1.53 5.208-4.053 0-2.865-1.803-6.918-6.234-13.714-4.982-7.791-6.234-10.753-6.234-14.927 0-12.525 14.145-22.622 31.696-22.622 4.982 0 9.513.874 11.216 2.185 1.026.776 1.477 1.869 1.477 3.616 0 3.083-1.127 9.102-2.378 12.185-1.127 2.864-3.405 3.738-9.614 3.738-5.884 0-6.46-.219-6.46-2.428l.075-1.504z" stroke="#F10693" stroke-width="4" stroke-linejoin="round" mask="url(#a)"/></svg>