<svg xmlns="http://www.w3.org/2000/svg" viewBox="0 0 196 11"><path d="M157.9 11c1.2-4.3 2.3-8.6 2.3-9s-.3-.8-.8-1c-.6-.3-2.4-.7-3.1-.7-.6 0-.7.2-1.1 1.5l-.5 1.7L154 6l-.5 1.9-.1.4-3.5-.1.2-.5.7-2.3.5-1.6c.5-1.5.5-1.5.5-1.9 0-.5-.3-.9-.9-1.2-.7-.3-1.9-.6-2.5-.6-.7 0-1.2.3-1.5 1-.2.5-1.3 3.8-1.9 5.8l-.3.9-.1.3c-.9 0-1.1.1-1.4.3-.3.3-.7 1.6-1 2.6h15.7zm-25.2 0h6.1c-.4-.8-.9-1.7-1.5-2.7s-.9-1.5-.9-2c0-.7.5-1 1.7-1.1v.4c0 .6.2.7 1.8.7 1.7 0 2.4-.2 2.7-1 .4-.9.7-2.5.7-3.4 0-.5-.1-.8-.4-1-.5-.4-1.7-.6-3.1-.6-4.9 0-8.9 2.8-8.9 6.3 0 1.2.4 2 1.7 4.2 0 0 0 .1.1.2zm-18.3-4.1c.2 0 .4-.1.9-.2l1.1-.4c-.2.9-.4 1.4-1 3.7-.1.4-.2.7-.3 1h12.3c.9-1.4 1.5-3 1.5-4.4 0-1.9-.9-3.9-2.4-5-1.2-.9-3-1.4-5.1-1.4-2.6 0-5.2.6-6 1.4-.8.7-1.6 3-1.6 4.5 0 .5.2.8.6.8zm6.6-1.6c1.7 0 2.6.6 2.6 1.8 0 1.3-1.3 2.5-3 3 .5-1.6.8-2.6.8-2.8 0-.5-.5-.9-1.3-1.2-.4-.1-.7-.2-1.1-.3-.1 0-.3-.1-.5-.1 1-.3 1.8-.4 2.5-.4zm57.9 1.6c.2 0 .4-.1.9-.2l1.1-.4c-.2.9-.4 1.4-1 3.7-.1.4-.2.7-.3 1h12.3c.9-1.4 1.5-3 1.5-4.4 0-1.9-.9-3.9-2.4-5-1.2-.9-3-1.4-5.1-1.4-2.6 0-5.2.6-6 1.4-.8.7-1.6 3-1.6 4.5 0 .5.2.8.6.8zm6.6-1.6c1.7 0 2.6.6 2.6 1.8 0 1.3-1.3 2.5-3 3 .5-1.6.8-2.6.8-2.8 0-.5-.5-.9-1.3-1.2-.4-.1-.7-.2-1.1-.3-.1 0-.3-.1-.5-.1 1-.3 1.7-.4 2.5-.4zM166.2 11c.2-.7.4-1.5.8-2.2.7-1.5 1.5-2.5 2.7-3.3.5-.3.5-.3.6-.4.1-.2.2-.2.3-.8 0-.1.1-.2.1-.4.3 1 .4 1.6.4 2.7 0 1.5-.2 3.1-.6 4.4h5.6c.4-1.6.6-3.2.6-4.6 0-3.4-1-6.2-2.3-6.2-.5 0-.7.2-2.9 2l-.5.4c.2-1 .3-1.4.3-1.8 0-.5-.3-.7-1-.7-1.3 0-3 .7-4.5 1.8-2.6 2-4.5 5.4-5.1 9.1h5.5zm-128.9-.1c.2-.7.4-1.4.8-2.1.7-1.5 1.5-2.5 2.7-3.3.5-.3.5-.3.6-.4.1-.2.2-.2.3-.8 0-.1.1-.2.1-.4.3 1 .4 1.6.4 2.7 0 1.5-.2 3.1-.6 4.4h5.6c.4-1.6.6-3.2.6-4.6 0-3.4-1-6.2-2.3-6.2-.5 0-.7.2-2.9 2l-.4.4c.2-1 .3-1.4.3-1.8 0-.5-.3-.7-1-.7-1.3 0-3 .7-4.5 1.8-2.6 2-4.5 5.4-5.1 9.1h5.4v-.1zm-13.6.1l.1-.2c0 .1 0 .1-.1.2H29c1.2-4.3 2.3-8.6 2.3-9s-.3-.8-.8-1c-.6-.3-2.4-.7-3.1-.7-.6 0-.7.2-1.1 1.5l-.5 1.7-.7 2.5-.5 1.9-.1.4-3.5-.1.2-.5.7-2.3.5-1.6c.5-1.5.5-1.5.5-1.9 0-.5-.3-.9-.9-1.2-.7-.3-1.9-.6-2.5-.6-.7 0-1.2.3-1.5 1-.2.5-1.3 3.8-1.9 5.8 0 .5-.1.8-.2 1.1l-.1.3c-.9 0-1.1.1-1.4.3-.3.3-.7 1.4-1 2.4h10.3zM50 6.9c.2 0 .4-.1.9-.2l1.1-.4c-.2.9-.4 1.4-1 3.7-.1.4-.2.7-.3 1H63c.9-1.4 1.5-3 1.5-4.4 0-1.9-.9-3.9-2.4-5C60.9.7 59.1.2 57 .2c-2.6 0-5.2.6-6 1.4-.8.7-1.6 3-1.6 4.5 0 .5.2.8.6.8zm6.6-1.6c1.7 0 2.6.6 2.6 1.8 0 1.3-1.3 2.5-3 3 .5-1.6.8-2.6.8-2.8 0-.5-.5-.9-1.3-1.2-.4-.1-.7-.2-1.1-.3-.1 0-.3-.1-.5-.1 1-.3 1.7-.4 2.5-.4zM3.8 11h6.1c-.4-.8-.9-1.7-1.5-2.7s-.9-1.5-.9-2c0-.7.5-1 1.7-1.1v.4c0 .6.2.7 1.8.7 1.7 0 2.4-.2 2.7-1 .4-.9.7-2.5.7-3.4 0-.5-.1-.8-.4-1-.5-.4-1.7-.6-3.1-.6-5.1-.1-9 2.7-9 6.2 0 1.2.4 2 1.7 4.2.1.1.1.2.2.3zm64.5 0h6.1c-.4-.8-.9-1.7-1.5-2.7s-.9-1.5-.9-2c0-.7.5-1 1.7-1.1v.4c0 .6.2.7 1.8.7 1.7 0 2.4-.2 2.7-1 .4-.9.7-2.5.7-3.4 0-.5-.1-.8-.4-1-.5-.4-1.7-.6-3.1-.6-4.9 0-8.9 2.8-8.9 6.3 0 1.2.4 2 1.7 4.2-.1 0 0 .1.1.2zm33.4 0c.2-.7.4-1.5.8-2.2.7-1.5 1.5-2.5 2.7-3.3.5-.3.5-.3.6-.4.1-.2.2-.2.3-.8 0-.1.1-.2.1-.4.3 1 .4 1.6.4 2.7 0 1.5-.2 3.1-.6 4.4h5.6c.4-1.6.6-3.2.6-4.6 0-3.4-1-6.2-2.3-6.2-.5 0-.7.2-2.9 2l-.5.4c.2-1 .3-1.4.3-1.8 0-.5-.3-.7-1-.7-1.3 0-3 .7-4.5 1.8-2.6 2-4.5 5.4-5.1 9.1h5.5zm-8.2 0c1.2-4.3 2.3-8.6 2.3-9s-.3-.8-.8-1c-.6-.3-2.4-.7-3.1-.7-.6 0-.7.2-1.1 1.5l-.5 1.7-.7 2.5-.5 1.9-.1.4-3.5-.1.2-.5.7-2.3.5-1.6c.5-1.5.5-1.5.5-1.9 0-.5-.3-.9-.9-1.2-.7-.3-1.9-.6-2.5-.6-.7 0-1.2.3-1.5 1-.2.5-1.3 3.8-1.9 5.8l-.3.9-.1.3c-.9 0-1.1.1-1.4.3-.3.3-.7 1.6-1 2.6h15.7z" fill="#00b0a6"/></svg>