<svg xmlns="http://www.w3.org/2000/svg" viewBox="0 0 199.6 10.6"><path d="M81.4 0c-.2.6-.1 1.2-.1 1.6 0 .7.3 1 1.1 1.1l-.1.4c-.2.7-.3 1.3-.5 2-.7 2.7-.8 3.2-.8 3.6s.2.6.9.9c.7.3 1.8.5 2.6.5.5 0 1-.2 1.2-.5.3-.3.4-.6.7-2.2.1-.5.3-1.1.5-1.9.4-1.7.5-2 .6-2.7H89c1.1 0 1.3-.1 2.2-1.7.1-.2.3-.5.4-.7l.3-.4c-.2.8-.3 1-.5 1.7-1.3 4.4-1.9 6.6-1.9 7 0 .9 1.1 1.3 3.3 1.3 1.3 0 1.5-.1 2-1.6.6-2 1.5-5.2 2.3-8.4H81.4zM54.3 0c-.8 2.8-1.3 5.1-1.8 7.4-.3 1.1-.3 1.1-.3 1.3 0 .8 1.8 1.5 3.7 1.5 1 0 1.1-.3 1.6-2.5.4-1.7.7-3 1.1-4.6l.4-1.7.2-.7v.9c0 .9.1 1.9.3 2.3.1.2.3.3.6.3 1.1 0 2.7-.6 3.9-1.5 1.1-.8 2-1.6 2.7-2.7H54.3zm-9.1 0c-.7 2.7-2 4.8-3.2 4.8-.8 0-1.4-1-1.4-2.4 0-.7 0-1.6.3-2.4h-5.4c-.2.9-.3 1.8-.3 2.7 0 2.5.7 4.6 2.2 6 1.1 1.1 2.6 1.7 4 1.7 2.3 0 4.6-1.3 6.5-3.7 1.2-1.6 2.3-4 2.9-6.7h-5.6zM17 0c-.2.6-.1 1.2-.1 1.6 0 .7.3 1 1.1 1.1l-.1.4c-.2.7-.3 1.3-.5 2-.7 2.7-.8 3.2-.8 3.6 0 .4.2.6.9.9.7.3 1.8.5 2.6.5.5 0 1-.2 1.2-.5.3-.3.4-.6.7-2.2.1-.5.3-1.1.5-1.9.4-1.7.5-2 .6-2.7h1.5c1.1 0 1.3-.1 2.2-1.7.1-.2.3-.5.4-.7l.3-.4c-.2.8-.3 1-.5 1.7-1.3 4.4-1.9 6.6-1.9 7 0 .9 1.1 1.3 3.3 1.3 1.3 0 1.5-.1 2-1.6.6-2 1.4-5.2 2.2-8.4H17zM7.4 0C8.5 1.9 9 3 9 3.8S8.5 5 7.6 5h-.5c.1-.7.1-1 .1-1.2 0-.3-.1-.5-.2-.6-.2-.2-1.3-.3-2.2-.3s-1.4.2-1.7.7c-.4.8-1 3.7-1 4.7 0 .5.2.9.5 1.2.5.5 1.9.7 4 .7s3.7-.4 5-1.2c1.7-1.1 2.8-3.2 2.8-5.4 0-1.2-.3-2.3-.9-3.6H7.4zm64.5 0c1.2 1.9 1.6 3 1.6 3.8-.1.8-.6 1.2-1.5 1.2h-.5c.1-.7.1-1 .1-1.2 0-.3-.1-.5-.2-.6-.3-.1-1.3-.3-2.3-.3-.9 0-1.4.2-1.7.7-.4.8-1 3.7-1 4.7 0 .5.2.9.5 1.2.5.5 1.9.7 4 .7s3.7-.4 5-1.2c1.7-1.1 2.8-3.2 2.8-5.4 0-1.2-.1-2.3-.7-3.6h-6.1zm73.9 0c-.2.6-.1 1.2-.1 1.6 0 .7.3 1 1.1 1.1l-.1.4c-.2.7-.3 1.3-.5 2-.7 2.7-.8 3.2-.8 3.6 0 .4.2.6.9.9.7.3 1.8.5 2.6.5.5 0 1-.2 1.2-.5.3-.3.4-.6.7-2.2.1-.5.3-1.1.5-1.9.4-1.7.5-2 .6-2.7h1.5c1.1 0 1.3-.1 2.2-1.7.1-.2.3-.5.4-.7l.2-.4c-.2.8-.3 1-.5 1.7-1.3 4.4-1.9 6.6-1.9 7 0 .9 1.1 1.3 3.3 1.3 1.3 0 1.5-.1 2-1.6.6-2 1.6-5.2 2.4-8.4h-15.7zm28.3 0c-.7 2.7-2 4.8-3.2 4.8-.8 0-1.4-1-1.4-2.4 0-.7 0-1.6.3-2.4h-5.5c-.2.9-.2 1.8-.2 2.7 0 2.5.7 4.6 2.2 6 1.1 1.1 2.6 1.7 4 1.7 2.3 0 4.6-1.3 6.5-3.7 1.2-1.6 2.3-4 2.9-6.7h-5.6zm9.1 0c-.8 2.8-1.3 5.1-1.8 7.4-.4 1.2-.4 1.2-.4 1.4 0 .8 1.8 1.5 3.7 1.5 1 0 1.1-.3 1.6-2.5.4-1.7.7-3 1.1-4.6l.4-1.7.2-.7v.9c0 .9.1 1.9.3 2.3.1.2.3.3.6.3 1.1 0 2.7-.6 3.9-1.5 1.1-.8 2-1.7 2.7-2.8h-12.3zm-73.6 0c-.7 2.7-2 4.8-3.2 4.8-.8 0-1.4-1-1.4-2.4 0-.7 0-1.6.3-2.4h-5.5c-.2.9-.2 1.8-.2 2.7 0 2.5.7 4.6 2.2 6 1.1 1.1 2.6 1.7 4 1.7 2.3 0 4.6-1.3 6.5-3.7 1.2-1.6 2.3-4 2.9-6.7h-5.6zm26.7 0c1.2 1.9 1.6 3 1.6 3.8 0 .7-.6 1.2-1.5 1.2h-.5c.1-.7.1-1 .1-1.2 0-.3-.1-.5-.2-.6-.3-.1-1.3-.3-2.3-.3-.9 0-1.4.2-1.7.7-.4.8-1 3.7-1 4.7 0 .5.2.9.5 1.2.5.5 1.9.7 4 .7s3.7-.4 5-1.2c1.7-1.1 2.8-3.2 2.8-5.4 0-1.2-.1-2.3-.7-3.6h-6.1zm-17.6 0c-.8 2.8-1.2 5.1-1.7 7.4-.3 1.1-.3 1.1-.3 1.3 0 .8 1.8 1.5 3.7 1.5 1 0 1.1-.3 1.6-2.5.4-1.7.7-3 1.1-4.6l.4-1.7.2-.7v.9c0 .9.1 1.9.3 2.3.1.2.3.3.6.3 1.1 0 2.7-.6 3.9-1.5 1.1-.8 1.8-1.6 2.5-2.7h-12.3z" fill="#00b0a6"/></svg>