<svg width="357" height="19" fill="none" xmlns="http://www.w3.org/2000/svg"><path d="M19.712-10.408c-2.212.227-3.086.858-3.086 2.108 0 .795.463 1.88 1.633 3.648C21.28-.084 22.45 3.11 22.45 6.656c0 4.001-1.98 7.712-5.054 9.706-2.263 1.49-5.349 2.222-9.13 2.222-3.78 0-6.454-.455-7.328-1.313C.296 16.703 0 15.958 0 15.1c0-1.88 1.17-7.131 1.864-8.507.463-.909 1.402-1.312 3.086-1.312 1.685 0 3.665.227 4.128.454.231.177.347.454.347 1.085 0 .455-.051 1.023-.231 2.222.411.063.643.063.874.063 1.633 0 2.675-.795 2.675-2.108 0-1.49-.926-3.597-3.202-7.131-2.559-4.051-3.202-5.591-3.202-7.762 0-6.513 7.265-11.763 16.279-11.763 2.559 0 4.886.454 5.76 1.136.528.404.76.971.76 1.88 0 1.603-.58 4.733-1.223 6.336-.578 1.49-1.748 1.944-4.937 1.944-3.022 0-3.318-.114-3.318-1.262l.052-.783zm28.263 5.074l.925-3.534 1.222-4.62.874-3.193c.759-2.448.99-2.802 2.096-2.802 1.337 0 4.59.745 5.697 1.263.925.454 1.453 1.136 1.453 1.943 0 1.376-5.697 22.946-8.32 31.516-.81 2.688-1.157 2.915-3.6 2.915-3.96 0-6.044-.795-6.044-2.398 0-.681 1.106-4.796 3.434-12.621.411-1.313.462-1.603.874-3.03l-.412.682c-.231.455-.462.91-.694 1.313-1.749 2.802-2.096 3.03-4.076 2.966h-2.79c-.296 1.313-.412 1.88-1.157 4.847a49.076 49.076 0 00-.875 3.483c-.643 2.739-.874 3.307-1.337 3.887-.463.632-1.222.91-2.212.91-1.517 0-3.484-.405-4.77-.91-1.286-.517-1.685-.908-1.685-1.602 0-.682.232-1.603 1.453-6.4.347-1.135.643-2.334.926-3.533l.232-.682c-1.57-.29-2.096-.858-2.096-2.057 0-1.717 1.388-6.16 2.263-7.08.463-.518.874-.632 2.494-.632l.116-.517c.18-.518.347-1.086.527-1.654 1.042-3.71 3.022-9.87 3.433-10.841.527-1.2 1.453-1.768 2.74-1.768 1.105 0 3.368.518 4.59 1.086 1.041.454 1.568 1.199 1.568 2.17 0 .632 0 .632-.925 3.484l-.926 2.966-1.286 4.228-.296.859 6.34.176.244-.82zm32.801-10.551c4.012-3.42 4.424-3.711 5.298-3.711 2.327 0 4.192 5.137 4.192 11.422 0 7.131-2.739 15.928-6.34 20.497C80.494 16.602 76.25 19 72.059 19c-2.623 0-5.297-1.136-7.329-3.143-2.675-2.625-4.012-6.285-4.012-10.841 0-8.444 3.896-17.128 9.708-21.633C73.151-18.738 76.237-20 78.68-20c1.286 0 1.8.404 1.8 1.376 0 .858-.115 1.603-.527 3.42l.823-.681zm-1.568 3.874c-.296.972-.347 1.136-.579 1.426-.231.228-.296.228-1.157.796-2.096 1.312-3.6 3.193-4.886 6.045-1.222 2.802-1.98 5.819-1.98 8.217 0 2.398 1.157 4.278 2.623 4.278 3.368 0 6.866-8.443 6.866-16.559 0-2.057-.18-3.256-.643-5.023-.129.43-.244.656-.244.82zm25.176 14.906l-.81 2.966c-.643 2.739-1.286 5.25-1.98 8.217-.874 4-1.157 4.455-2.906 4.455-3.6 0-6.866-1.262-6.866-2.688 0-.341 0-.341.527-2.398 1.106-4.57 2.379-9.252 4.012-14.957 1.221-4.165 1.453-5.2 1.864-6.853l-2.096.745c-.99.34-1.337.454-1.684.454-.759 0-1.157-.518-1.157-1.49 0-2.738 1.453-6.966 2.854-8.33 1.517-1.489 6.224-2.625 10.994-2.625 3.896 0 7.149.909 9.425 2.575 2.739 2.057 4.475 5.654 4.475 9.251 0 4.733-3.086 10.098-7.561 13.127-2.263 1.603-5.182 2.625-7.213 2.625-.643 0-.926-.177-1.106-.568-.296-.745-.527-2.575-.527-4.115l.051-1.653-.296 1.262zM102.7-9.435c.643.226 1.337.453 1.98.63 1.517.455 2.443 1.25 2.443 2.171 0 .454-.463 2.17-1.453 5.2 3.253-.745 5.581-3.03 5.581-5.478 0-2.17-1.633-3.306-4.706-3.306-1.453 0-2.739.176-4.707.517.386.151.682.265.862.265zm35-.973c-2.211.227-3.086.858-3.086 2.108 0 .795.463 1.88 1.633 3.648 3.022 4.568 4.192 7.762 4.192 11.308 0 4.001-1.98 7.712-5.066 9.706-2.263 1.49-5.349 2.222-9.129 2.222-3.781 0-6.455-.455-7.33-1.313-.643-.568-.926-1.313-.926-2.171 0-1.88 1.171-7.131 1.865-8.507.463-.909 1.389-1.312 3.086-1.312 1.684 0 3.665.227 4.127.454.232.177.348.454.348 1.085 0 .455-.052 1.023-.232 2.222.412.063.643.063.875.063 1.633 0 2.674-.795 2.674-2.108 0-1.49-.926-3.597-3.202-7.131-2.558-4.051-3.201-5.591-3.201-7.762 0-6.513 7.265-11.763 16.278-11.763 2.559 0 4.887.454 5.761 1.136.527.404.759.971.759 1.88 0 1.603-.579 4.733-1.222 6.336-.579 1.49-1.749 1.944-4.938 1.944-3.021 0-3.317-.114-3.317-1.262l.051-.783zm28.263 5.074l.926-3.534 1.221-4.62.875-3.193c.758-2.448.99-2.802 2.096-2.802 1.337 0 4.59.745 5.696 1.263.926.454 1.453 1.136 1.453 1.943 0 1.376-5.696 22.946-8.319 31.516-.81 2.688-1.158 2.915-3.601 2.915-3.96 0-6.043-.795-6.043-2.398 0-.681 1.106-4.796 3.433-12.621.411-1.313.463-1.603.874-3.03l-.411.682c-.232.455-.463.91-.694 1.313-1.749 2.802-2.096 3.03-4.077 2.966h-2.79c-.296 1.313-.411 1.88-1.157 4.847a48.762 48.762 0 00-.874 3.483c-.643 2.739-.875 3.307-1.338 3.887-.463.632-1.221.91-2.211.91-1.518 0-3.485-.405-4.771-.91-1.286-.517-1.684-.908-1.684-1.602 0-.682.231-1.603 1.453-6.4.347-1.135.643-2.334.926-3.533l.231-.682c-1.569-.29-2.096-.858-2.096-2.057 0-1.717 1.402-6.16 2.263-7.08.463-.518.875-.632 2.495-.632l.115-.517c.168-.518.348-1.086.528-1.654 1.041-3.71 3.021-9.87 3.433-10.841.527-1.2 1.453-1.768 2.739-1.768 1.105 0 3.369.518 4.59 1.086 1.042.454 1.569 1.199 1.569 2.17 0 .632 0 .632-.926 3.484l-.926 2.966-1.273 4.228-.296.859 6.34.176.231-.82zm32.802-10.551c4.012-3.42 4.423-3.711 5.297-3.711 2.328 0 4.192 5.137 4.192 11.422 0 7.131-2.739 15.928-6.339 20.497-3.433 4.279-7.676 6.677-11.868 6.677-2.623 0-5.298-1.136-7.329-3.143-2.675-2.625-4.012-6.285-4.012-10.841 0-8.444 3.896-17.128 9.708-21.633 2.726-2.12 5.812-3.383 8.255-3.383 1.286 0 1.8.404 1.8 1.376 0 .858-.116 1.603-.527 3.42l.823-.681zm-1.582 3.874c-.296.972-.347 1.136-.578 1.426-.232.228-.296.228-1.158.796-2.096 1.312-3.6 3.193-4.886 6.045-1.221 2.802-1.98 5.819-1.98 8.217 0 2.398 1.157 4.278 2.623 4.278 3.369 0 6.866-8.443 6.866-16.559 0-2.057-.18-3.256-.642-5.023-.116.43-.245.656-.245.82zm25.19 14.906l-.81 2.966c-.643 2.739-1.286 5.25-1.98 8.217-.875 4-1.158 4.455-2.906 4.455-3.601 0-6.867-1.262-6.867-2.688 0-.341 0-.341.527-2.398 1.106-4.57 2.379-9.252 4.012-14.957 1.222-4.165 1.453-5.2 1.865-6.853l-2.096.745c-.99.34-1.338.454-1.685.454-.758 0-1.17-.518-1.17-1.49 0-2.738 1.453-6.966 2.855-8.33 1.517-1.489 6.223-2.625 10.994-2.625 3.896 0 7.149.909 9.425 2.575 2.739 2.057 4.475 5.654 4.475 9.251 0 4.733-3.086 10.098-7.561 13.127-2.263 1.603-5.182 2.625-7.214 2.625-.643 0-.926-.177-1.106-.568-.295-.745-.527-2.575-.527-4.115l.052-1.653-.283 1.262zm-1.698-12.33c.643.226 1.338.453 1.981.63 1.517.455 2.443 1.25 2.443 2.171 0 .454-.463 2.17-1.453 5.2 3.253-.745 5.58-3.03 5.58-5.478 0-2.17-1.633-3.306-4.706-3.306-1.453 0-2.739.176-4.706.517.399.151.694.265.861.265zm35.014-.973c-2.212.227-3.086.858-3.086 2.108 0 .795.463 1.88 1.633 3.648 3.022 4.568 4.192 7.762 4.192 11.308 0 4.001-1.981 7.712-5.054 9.706-2.263 1.49-5.349 2.222-9.129 2.222-3.78 0-6.455-.455-7.329-1.313-.643-.568-.926-1.313-.926-2.171 0-1.88 1.157-7.131 1.864-8.507.463-.909 1.389-1.312 3.086-1.312 1.698 0 3.665.227 4.128.454.231.177.347.454.347 1.085 0 .455-.051 1.023-.231 2.222.411.063.642.063.874.063 1.633 0 2.674-.795 2.674-2.108 0-1.49-.925-3.597-3.201-7.131-2.559-4.051-3.202-5.591-3.202-7.762 0-6.513 7.265-11.763 16.279-11.763 2.559 0 4.886.454 5.76 1.136.527.404.759.971.759 1.88 0 1.603-.579 4.733-1.222 6.336-.578 1.49-1.748 1.944-4.937 1.944-3.022 0-3.318-.114-3.318-1.262l.039-.783zm28.263 5.074l.925-3.534 1.222-4.62.874-3.193c.759-2.448.99-2.802 2.096-2.802 1.337 0 4.591.745 5.696 1.263.926.454 1.453 1.136 1.453 1.943 0 1.376-5.696 22.946-8.319 31.516-.81 2.688-1.157 2.915-3.6 2.915-3.961 0-6.044-.795-6.044-2.398 0-.681 1.106-4.796 3.434-12.621.411-1.313.462-1.603.874-3.03l-.412.682c-.231.455-.463.91-.694 1.313-1.749 2.802-2.096 3.03-4.076 2.966h-2.79c-.296 1.313-.412 1.88-1.158 4.847a49.313 49.313 0 00-.874 3.483c-.643 2.739-.874 3.307-1.337 3.887-.463.632-1.222.91-2.212.91-1.517 0-3.484-.405-4.77-.91-1.286-.517-1.685-.908-1.685-1.602 0-.682.232-1.603 1.453-6.4.347-1.135.643-2.334.926-3.533l.231-.682c-1.568-.29-2.095-.858-2.095-2.057 0-1.717 1.388-6.16 2.263-7.08.463-.518.874-.632 2.507-.632l.116-.517c.18-.518.347-1.086.527-1.654 1.041-3.71 3.022-9.87 3.433-10.841.527-1.2 1.453-1.768 2.739-1.768 1.106 0 3.369.518 4.59 1.086 1.042.454 1.569 1.199 1.569 2.17 0 .632 0 .632-.926 3.484l-.926 2.966-1.285 4.228-.296.859 6.339.176.232-.82zm32.788-10.551c4.012-3.42 4.424-3.711 5.298-3.711 2.327 0 4.192 5.137 4.192 11.422 0 7.131-2.739 15.928-6.339 20.497-3.433 4.279-7.677 6.677-11.869 6.677-2.623 0-5.297-1.136-7.329-3.143-2.674-2.625-4.012-6.285-4.012-10.841 0-8.444 3.896-17.128 9.708-21.633 2.739-2.12 5.825-3.383 8.268-3.383 1.273 0 1.801.404 1.801 1.376 0 .858-.116 1.603-.528 3.42l.81-.681zm-1.568 3.874c-.296.972-.347 1.136-.579 1.426-.231.228-.296.228-1.157.796-2.096 1.312-3.6 3.193-4.886 6.045-1.222 2.802-1.981 5.819-1.981 8.217 0 2.398 1.158 4.278 2.624 4.278 3.368 0 6.866-8.443 6.866-16.559 0-2.057-.18-3.256-.643-5.023-.129.43-.244.656-.244.82zm25.176 14.906l-.81 2.966c-.643 2.739-1.273 5.25-1.98 8.217-.874 4-1.157 4.455-2.906 4.455-3.6 0-6.866-1.262-6.866-2.688 0-.341 0-.341.527-2.398 1.106-4.57 2.379-9.252 4.012-14.957 1.221-4.165 1.453-5.2 1.864-6.853l-2.096.745c-.99.34-1.337.454-1.684.454-.759 0-1.157-.518-1.157-1.49 0-2.738 1.453-6.966 2.854-8.33 1.517-1.489 6.224-2.625 10.994-2.625 3.896 0 7.149.909 9.425 2.575C355.264-14.977 357-11.38 357-7.783c0 4.733-3.086 10.098-7.561 13.127-2.263 1.603-5.182 2.625-7.213 2.625-.643 0-.926-.177-1.106-.568-.296-.745-.527-2.575-.527-4.115l.051-1.653-.296 1.262zm-1.684-12.33c.643.226 1.337.453 1.98.63 1.517.455 2.443 1.25 2.443 2.171 0 .454-.463 2.17-1.453 5.2 3.253-.745 5.581-3.03 5.581-5.478 0-2.17-1.633-3.306-4.706-3.306-1.453 0-2.739.176-4.707.517.399.151.695.265.862.265z" fill="#000"/></svg>