<svg width="332" height="32" fill="none" xmlns="http://www.w3.org/2000/svg"><path d="M26.952 27.077h-8.576V13.538h-4.9v13.539H4.9V0H0v32h31.852V0h-4.9v27.077zM74.73 32h4.901V4.923h22.052V32h4.9V0H74.731v32zM53.291 0c-8.783 0-15.926 7.175-15.926 16s7.143 16 15.926 16c8.784 0 15.927-7.175 15.927-16S62.075 0 53.29 0zm0 27.077c-6.076 0-11.025-4.972-11.025-11.077 0-6.105 4.95-11.077 11.026-11.077S64.317 9.895 64.317 16c0 6.105-4.949 11.077-11.025 11.077zm86.37 0h-8.576V13.538h-4.9v13.539h-8.576V0h-4.901v32h31.853V0h-4.9v27.077zM187.439 32h4.9V4.923h22.052V32h4.901V0h-31.853v32zM166 0c-8.784 0-15.926 7.175-15.926 16S157.216 32 166 32c8.784 0 15.926-7.175 15.926-16S174.784 0 166 0zm0 27.077c-6.076 0-11.026-4.972-11.026-11.077 0-6.105 4.95-11.077 11.026-11.077S177.026 9.895 177.026 16c0 6.105-4.95 11.077-11.026 11.077zm86.369 0h-8.576V13.538h-4.9v13.539h-8.576V0h-4.9v32h31.852V0h-4.9v27.077zM300.148 0v32h4.9V4.923H327.1V32h4.9V0h-31.852zm-21.44 0c-8.783 0-15.926 7.175-15.926 16s7.143 16 15.926 16c8.784 0 15.927-7.175 15.927-16s-7.143-16-15.927-16zm0 27.077c-6.076 0-11.025-4.972-11.025-11.077 0-6.105 4.949-11.077 11.025-11.077 6.077 0 11.026 4.972 11.026 11.077 0 6.105-4.949 11.077-11.026 11.077z" fill="#fff"/></svg>