<svg xmlns="http://www.w3.org/2000/svg" viewBox="0 0 337.12 32"><path d="M29.51 27.08h-8.57V13.54h-4.9v13.54H7.46V0h-4.9v32h31.85V0h-4.9zM77.29 32h4.9V4.92h22.05V32h4.9V0H77.29zm-21.44-4.92c-6.08 0-11.03-4.97-11.03-11.08 0-6.1 4.95-11.08 11.03-11.08S66.88 9.9 66.88 16s-4.95 11.08-11.03 11.08zm0-27.08c-8.78 0-15.93 7.18-15.93 16s7.14 16 15.93 16 15.93-7.18 15.93-16S64.64 0 55.85 0zm86.37 27.08h-8.57V13.54h-4.9v13.54h-8.58V0h-4.9v32h31.85V0h-4.9zM190 32h4.9V4.92h22.05V32h4.9V0H190zm-21.44-4.92c-6.08 0-11.03-4.97-11.03-11.08 0-6.1 4.95-11.08 11.03-11.08 6.08 0 11.03 4.97 11.03 11.08 0 6.1-4.95 11.08-11.03 11.08zm0-27.08c-8.78 0-15.93 7.18-15.93 16s7.14 16 15.93 16 15.93-7.18 15.93-16-7.15-16-15.93-16zm86.37 27.08h-8.58V13.54h-4.9v13.54h-8.57V0h-4.9v32h31.85V0h-4.9zM302.71 0v32h4.9V4.92h22.05V32h4.9V0zm-21.44 27.08c-6.08 0-11.03-4.97-11.03-11.08 0-6.1 4.95-11.08 11.03-11.08S292.3 9.9 292.3 16s-4.95 11.08-11.03 11.08zm0-27.08c-8.78 0-15.93 7.18-15.93 16s7.14 16 15.93 16 15.93-7.18 15.93-16-7.15-16-15.93-16z" fill="#fff"/></svg>