<svg width="190" height="18" fill="none" xmlns="http://www.w3.org/2000/svg"><path d="M15.424 15.23h-4.907V7.616H7.712v7.616H2.804V0H0v18h18.229V0h-2.805v15.23zM42.767 18h2.805V2.77h12.62V18h2.804V0H42.767v18zM30.498 0c-5.027 0-9.114 4.036-9.114 9s4.087 9 9.114 9c5.027 0 9.114-4.036 9.114-9s-4.087-9-9.114-9zm0 15.23c-3.477 0-6.31-2.796-6.31-6.23 0-3.434 2.833-6.23 6.31-6.23 3.478 0 6.31 2.796 6.31 6.23 0 3.434-2.832 6.23-6.31 6.23zm49.428 0h-4.908V7.616h-2.804v7.616h-4.908V0h-2.804v18H82.73V0h-2.805v15.23zM107.269 18h2.805V2.77h12.62V18h2.804V0h-18.229v18zM95 0c-5.027 0-9.114 4.036-9.114 9s4.087 9 9.114 9c5.027 0 9.114-4.036 9.114-9S100.027 0 95 0zm0 15.23c-3.478 0-6.31-2.796-6.31-6.23 0-3.434 2.832-6.23 6.31-6.23 3.478 0 6.31 2.796 6.31 6.23 0 3.434-2.832 6.23-6.31 6.23zm49.428 0h-4.908V7.616h-2.804v7.616h-4.908V0h-2.804v18h18.228V0h-2.804v15.23zM171.771 0v18h2.805V2.77h12.62V18H190V0h-18.229zm-12.269 0c-5.027 0-9.115 4.036-9.115 9s4.088 9 9.115 9 9.114-4.036 9.114-9-4.087-9-9.114-9zm0 15.23c-3.478 0-6.31-2.796-6.31-6.23 0-3.434 2.832-6.23 6.31-6.23 3.477 0 6.31 2.796 6.31 6.23 0 3.434-2.833 6.23-6.31 6.23z" fill="#fff"/></svg>